<svg width="24.000000" height="24.000000" viewBox="0 0 24 24" fill="none" xmlns="http://www.w3.org/2000/svg" xmlns:xlink="http://www.w3.org/1999/xlink">
	<desc>
			Created with Pixso.
	</desc>
	<defs>
		<clipPath id="clip163_50">
			<rect id="exit" width="24.000000" height="24.000000" fill="white" fill-opacity="0"/>
		</clipPath>
	</defs>
	<g clip-path="url(#clip163_50)">
		<path id="path" d="M2 5C2 3.34 3.34 2 5 2L13 2C14.65 2 16 3.34 16 5L16 8L14 8L14 5C14 4.44 13.55 4 13 4L5 4C4.82 4 4.66 4.04 4.52 4.12L8.19 5.71C9.29 6.19 10 7.27 10 8.46L10 20L13 20C13.55 20 14 19.55 14 19L14 16L16 16L16 19C16 20.65 14.65 22 13 22L5 22C3.34 22 2 20.65 2 19L2 5Z" fill="#333333" fill-opacity="1.000000" fill-rule="evenodd"/>
		<path id="path" d="M18.16 14.44C17.86 14.9 17.98 15.52 18.44 15.83C18.9 16.13 19.52 16.01 19.83 15.55L22.2 12L19.83 8.44C19.52 7.98 18.9 7.86 18.44 8.16C17.98 8.47 17.86 9.09 18.16 9.55L19.13 11L12 11L12 13L19.13 13L18.16 14.44Z" fill="#333333" fill-opacity="1.000000" fill-rule="evenodd"/>
	</g>
</svg>
