<svg width="20.000000" height="20.000000" viewBox="0 0 20 20" fill="none" xmlns="http://www.w3.org/2000/svg" xmlns:xlink="http://www.w3.org/1999/xlink">
	<desc>
			Created with Pixso.
	</desc>
	<defs/>
	<path id="Game" d="M11.3052 4.06543C12.2375 4.06543 13.1697 4.08496 14.1118 4.09424C17.5171 4.09424 20 6.52197 20 9.875L20 14.1812C20 17.5337 17.5171 19.9614 14.1118 19.9614C12.7478 19.9902 11.3838 20 10.0098 20C8.63599 20 7.2522 19.9902 5.88818 19.9614C2.48291 19.9614 0 17.5337 0 14.1812L0 9.875C0 6.52197 2.48291 4.09424 5.89795 4.09424C7.18359 4.0752 8.49854 4.05566 9.83325 4.05566L9.83325 3.89209C9.83325 3.22754 9.27368 2.68799 8.60645 2.68799L7.63501 2.68799C6.52612 2.68799 5.62305 1.80176 5.62305 0.722656C5.62305 0.327637 5.95679 0 6.35913 0C6.77124 0 7.09521 0.327637 7.09521 0.722656C7.09521 1.01172 7.34058 1.24268 7.63501 1.24268L8.60645 1.24268C10.0884 1.25244 11.2954 2.4375 11.3052 3.88232L11.3052 4.06543ZM8.85205 12.7456L7.82153 12.7456L7.82153 13.7671C7.82153 14.1621 7.48804 14.4893 7.08569 14.4893C6.67334 14.4893 6.34961 14.1621 6.34961 13.7671L6.34961 12.7456L5.30933 12.7456C4.90698 12.7456 4.57324 12.4277 4.57324 12.0229C4.57324 11.6279 4.90698 11.3008 5.30933 11.3008L6.34961 11.3008L6.34961 10.2891C6.34961 9.89404 6.67334 9.56641 7.08569 9.56641C7.48804 9.56641 7.82153 9.89404 7.82153 10.2891L7.82153 11.3008L8.85205 11.3008C9.25439 11.3008 9.58813 11.6279 9.58813 12.0229C9.58813 12.4277 9.25439 12.7456 8.85205 12.7456ZM13.0227 11.1177L13.1208 11.1177C13.5232 11.1177 13.8569 10.7998 13.8569 10.395C13.8569 10 13.5232 9.67236 13.1208 9.67236L13.0227 9.67236C12.6106 9.67236 12.2869 10 12.2869 10.395C12.2869 10.7998 12.6106 11.1177 13.0227 11.1177ZM14.7009 14.4316L14.7991 14.4316C15.2014 14.4316 15.5352 14.1138 15.5352 13.709C15.5352 13.314 15.2014 12.9863 14.7991 12.9863L14.7009 12.9863C14.2878 12.9863 13.9648 13.314 13.9648 13.709C13.9648 14.1138 14.2878 14.4316 14.7009 14.4316Z" clip-rule="evenodd" fill="#333333" fill-opacity="1.000000" fill-rule="evenodd"/>
</svg>
