<svg width="24.000000" height="24.000000" viewBox="0 0 24 24" fill="none" xmlns="http://www.w3.org/2000/svg" xmlns:xlink="http://www.w3.org/1999/xlink">
	<desc>
			Created with Pixso.
	</desc>
	<defs>
		<clipPath id="clip163_42">
			<rect id="home-smile-fill" width="24.000000" height="24.000000" fill="white" fill-opacity="0"/>
		</clipPath>
	</defs>
	<rect id="home-smile-fill" width="24.000000" height="24.000000" fill="#FFFFFF" fill-opacity="0"/>
	<g clip-path="url(#clip163_42)">
		<path id="矢量 35" d="M20 20C20 20.26 19.89 20.51 19.7 20.7C19.51 20.89 19.26 21 19 21L5 21C4.73 21 4.48 20.89 4.29 20.7C4.1 20.51 4 20.26 4 20L4 11L1 11L11.32 1.61C11.51 1.44 11.75 1.35 12 1.35C12.24 1.35 12.48 1.44 12.67 1.61L23 11L20 11L20 20ZM7.5 13C7.5 14.19 7.97 15.33 8.81 16.18C9.66 17.02 10.8 17.5 12 17.5C13.19 17.5 14.33 17.02 15.18 16.18C16.02 15.33 16.5 14.19 16.5 13L14.5 13C14.5 13.66 14.23 14.29 13.76 14.76C13.29 15.23 12.66 15.5 12 15.5C11.33 15.5 10.7 15.23 10.23 14.76C9.76 14.29 9.5 13.66 9.5 13L7.5 13Z" fill="#333333" fill-opacity="1.000000" fill-rule="evenodd"/>
	</g>
</svg>
